<?xml version="1.0" standalone="no"?>
<!DOCTYPE svg PUBLIC "-//W3C//DTD SVG 20010904//EN"
 "http://www.w3.org/TR/2001/REC-SVG-20010904/DTD/svg10.dtd">
<svg version="1.0" xmlns="http://www.w3.org/2000/svg"
 width="529.000000pt" height="640.000000pt" viewBox="0 0 529.000000 640.000000"
 preserveAspectRatio="xMidYMid meet">

<g transform="translate(0.000000,640.000000) scale(0.100000,-0.100000)"
fill="firebrick" stroke="none">
<path d="M2780 6249 c-41 -5 -118 -18 -170 -28 -52 -11 -111 -23 -130 -26 -54
-9 -110 -27 -110 -36 0 -4 15 -15 33 -24 31 -15 67 -63 67 -91 0 -19 -1 -19
-70 18 -49 25 -76 32 -138 36 -73 4 -83 2 -143 -27 -63 -32 -130 -87 -152
-126 -6 -11 -10 -38 -9 -60 2 -33 9 -47 45 -79 23 -21 73 -54 111 -71 l69 -33
-62 -7 c-63 -7 -90 -2 -52 10 27 8 27 25 1 25 -31 0 -129 50 -150 78 -22 28
-26 63 -9 94 18 34 -1 34 -33 0 -16 -19 -27 -40 -24 -47 3 -8 8 -30 12 -50 8
-46 66 -91 129 -100 30 -5 42 -11 41 -23 -2 -23 106 -57 239 -76 84 -13 250
-18 695 -24 l585 -9 109 -28 c122 -32 184 -67 228 -130 36 -52 44 -102 28
-173 -18 -76 -49 -123 -105 -161 -52 -35 -61 -37 -68 -17 -4 10 -20 15 -44 14
-63 -1 -230 38 -389 91 -82 27 -181 59 -221 71 -40 12 -89 30 -110 39 -21 10
-56 24 -78 32 -22 7 -43 16 -48 19 -10 8 -131 -6 -174 -21 -20 -6 -77 -55
-146 -122 -176 -175 -343 -289 -512 -352 -27 -10 -98 -42 -158 -72 -119 -59
-209 -138 -247 -219 -31 -64 -16 -71 41 -21 100 88 251 165 404 207 156 42
260 114 505 347 69 65 138 129 154 141 35 27 84 28 175 6 78 -20 128 -43 196
-94 27 -21 100 -62 160 -93 192 -95 265 -111 520 -111 182 -1 191 -2 223 -24
41 -30 41 -48 -3 -73 -39 -23 -42 -31 -20 -49 13 -11 13 -15 -1 -41 -15 -30
-30 -40 -20 -14 7 20 -21 32 -37 16 -12 -12 -47 -15 -47 -3 0 4 7 16 15 26 22
28 18 49 -11 77 -23 21 -35 24 -107 24 -91 0 -139 -15 -155 -49 -13 -29 2 -49
64 -82 65 -34 78 -47 112 -108 36 -63 93 -254 86 -282 -3 -12 -24 -31 -46 -44
-77 -43 -202 -10 -245 66 -13 21 -37 73 -54 114 -86 206 -179 346 -274 412
-52 35 -134 48 -158 23 -32 -32 -21 -77 43 -174 33 -50 60 -94 60 -96 0 -3 17
-33 38 -67 65 -109 124 -285 156 -473 27 -152 55 -238 122 -367 46 -91 124
-282 124 -307 0 -68 -42 -70 -65 -2 -16 48 -41 79 -81 99 -18 10 -22 23 -26
76 -6 99 -22 112 -151 120 -56 4 -118 11 -137 16 -30 8 -26 9 29 8 70 -2 91
12 91 61 1 14 7 37 15 51 18 32 19 152 1 202 -7 20 -23 49 -35 65 -12 15 -57
80 -99 144 -98 147 -103 153 -185 217 -86 69 -95 103 -46 174 32 44 24 68 -43
139 -46 48 -83 76 -138 102 -143 70 -208 72 -280 12 -42 -35 -51 -39 -112 -49
-24 -5 -46 -17 -63 -38 -25 -29 -26 -35 -19 -97 3 -36 13 -78 20 -93 19 -36
73 -63 159 -77 149 -25 225 -53 225 -83 0 -15 -42 -8 -81 14 -50 28 -64 15
-22 -20 32 -26 41 -48 42 -105 1 -21 16 -44 56 -83 42 -41 55 -62 55 -84 0
-26 -8 -33 -71 -66 -81 -43 -112 -81 -135 -165 -7 -30 -14 -57 -14 -60 0 -4
37 -4 83 -2 65 4 90 2 114 -11 30 -15 36 -15 96 6 81 26 97 21 97 -31 0 -75
91 -140 180 -128 23 3 38 1 34 -4 -3 -5 -15 -9 -26 -9 -41 0 -108 -42 -158
-97 -27 -31 -47 -60 -44 -64 2 -5 20 1 40 11 47 27 132 26 215 -1 124 -42 186
-106 124 -129 -31 -12 -101 19 -153 69 -36 35 -70 51 -108 51 -30 0 -30 -1 0
-45 14 -20 26 -39 28 -43 2 -4 33 -35 70 -69 l66 -63 90 0 c99 0 130 -10 205
-63 53 -39 82 -72 96 -111 10 -24 14 -25 55 -20 64 9 129 -3 172 -32 36 -25
40 -25 156 -18 131 7 205 -3 275 -39 110 -58 151 -82 190 -113 23 -19 44 -34
46 -34 6 0 42 119 56 187 8 39 7 70 -4 130 -16 90 -21 105 -51 153 -39 63 -48
119 -30 186 50 177 65 247 70 324 13 191 -22 280 -202 512 -31 41 -47 75 -62
131 -19 77 -79 209 -119 266 -12 17 -26 56 -32 88 -9 50 -7 66 11 118 52 148
65 284 35 349 -21 43 -115 136 -115 113 0 -9 3 -17 8 -17 4 0 22 -23 41 -50
31 -45 35 -58 34 -113 -2 -145 -115 -323 -183 -287 -26 14 -24 45 5 95 63 107
68 121 73 192 11 173 -92 292 -320 368 -145 48 -307 63 -778 70 -400 6 -429 8
-545 25 -251 38 -370 115 -291 189 65 61 130 57 318 -21 68 -28 152 -59 188
-69 96 -28 227 -34 342 -16 105 17 308 75 308 89 0 4 -6 8 -12 8 -142 4 -146
5 -214 54 -19 14 -44 -11 -44 -45 0 -25 -5 -30 -41 -39 -104 -28 -204 -8 -275
56 l-29 26 48 -7 c26 -3 68 -15 93 -27 32 -14 56 -18 80 -13 31 5 34 9 34 41
0 31 4 37 37 50 46 20 94 13 144 -21 30 -19 61 -28 139 -36 113 -13 180 -4
239 32 l34 20 -29 31 c-35 37 -198 116 -319 156 -103 34 -219 44 -335 31z
m1459 -1914 c37 -64 82 -225 88 -315 5 -82 4 -86 -25 -126 -16 -23 -52 -58
-78 -79 -27 -22 -54 -45 -61 -53 -22 -27 12 -143 63 -209 13 -17 24 -34 24
-36 0 -3 16 -28 35 -56 26 -40 32 -57 26 -74 -10 -27 -57 -56 -97 -58 -65 -4
-84 1 -84 20 0 10 -11 49 -25 85 -38 102 -29 224 24 309 20 32 20 34 3 92 -13
46 -17 98 -17 221 l1 161 44 76 c24 42 47 77 51 77 4 0 16 -16 28 -35z"/>
<path d="M2876 5117 c-35 -35 -44 -91 -21 -134 21 -38 35 -43 35 -11 0 21 3
20 36 -13 20 -20 39 -51 43 -70 l7 -33 42 38 c44 40 66 91 60 141 -4 37 -81
95 -137 102 -33 5 -44 1 -65 -20z"/>
<path d="M1496 4322 c-3 -5 -15 -51 -26 -102 -15 -66 -22 -137 -24 -239 -3
-171 -9 -188 -130 -355 -133 -184 -157 -221 -200 -306 -98 -194 -99 -199 -104
-443 l-4 -219 -58 -122 c-84 -177 -108 -240 -130 -341 -28 -125 -25 -245 11
-405 17 -79 7 -115 -57 -194 -84 -105 -102 -161 -113 -363 l-8 -142 -49 -81
c-27 -45 -73 -111 -102 -147 -79 -95 -102 -133 -102 -164 0 -19 -16 -46 -55
-91 -98 -110 -162 -271 -141 -352 9 -35 18 -33 41 11 18 33 86 93 106 93 4 0
-1 -25 -12 -57 -10 -31 -19 -73 -19 -93 l0 -38 67 -7 c202 -21 272 5 333 124
14 29 50 167 50 195 0 3 17 14 38 23 27 13 44 32 62 68 24 48 25 58 25 227 l0
177 51 53 c110 114 170 235 230 466 26 99 48 150 97 221 16 24 49 80 72 125
24 45 65 124 92 176 50 96 76 118 101 88 19 -23 30 -148 20 -236 -13 -115 12
-181 82 -217 26 -13 34 -12 99 10 79 28 103 30 150 14 21 -7 31 -17 31 -31 0
-28 -63 -103 -122 -145 -54 -40 -65 -70 -20 -58 15 4 45 8 67 9 31 1 40 -3 43
-17 4 -20 -58 -87 -81 -87 -10 0 -18 -14 -22 -40 -8 -47 -42 -101 -73 -115
-12 -5 -23 -17 -24 -25 -1 -8 -4 12 -7 45 -5 54 -9 60 -30 63 -17 3 -37 -9
-75 -46 -35 -35 -62 -53 -88 -57 -46 -9 -71 -36 -70 -76 0 -17 3 -33 6 -36 2
-3 -11 -21 -30 -41 -19 -21 -37 -47 -40 -59 -12 -48 43 -93 118 -96 33 -1 45
4 62 25 24 29 80 42 108 24 14 -8 21 -6 33 9 8 11 13 27 12 35 -2 8 9 40 23
70 15 30 33 72 39 92 23 71 67 117 144 153 104 48 148 102 187 233 21 69 60
132 82 132 5 0 21 9 35 20 32 25 79 26 92 2 13 -25 -18 -113 -59 -163 -43 -54
-27 -65 19 -12 34 39 74 63 107 63 17 0 18 -45 3 -141 l-12 -69 -62 -30 c-74
-36 -91 -53 -100 -105 l-7 -40 32 37 c17 21 36 38 42 38 6 0 5 -6 -2 -15 -10
-12 -10 -21 -1 -41 15 -33 14 -34 -7 -34 -22 0 -55 -34 -71 -75 -6 -17 -28
-40 -51 -52 -48 -28 -48 -28 -43 1 4 21 2 24 -15 19 -11 -3 -30 -16 -43 -29
-28 -30 -44 -30 -64 -1 -19 29 -9 66 38 145 19 31 40 74 46 94 7 22 26 47 44
60 44 31 84 68 73 68 -5 0 -33 -16 -62 -36 -45 -31 -60 -52 -114 -151 -69
-126 -74 -162 -29 -209 26 -28 42 -30 59 -8 8 8 21 19 30 24 15 8 17 4 13 -38
-2 -26 0 -53 5 -59 4 -7 35 -16 68 -19 70 -7 143 14 220 64 61 39 92 91 110
185 11 58 22 80 64 135 56 72 57 82 25 176 -15 44 -7 115 20 180 l16 38 25
-23 c46 -43 87 -119 98 -182 10 -55 15 -63 44 -77 17 -9 45 -30 60 -47 33 -35
72 -57 120 -68 18 -4 31 -9 28 -12 -6 -6 -86 12 -127 28 -14 6 -33 26 -42 45
-19 38 -33 43 -42 15 -12 -40 21 -87 107 -147 35 -24 71 -44 81 -44 10 0 39
12 63 26 41 24 52 26 113 21 38 -3 85 -13 106 -21 21 -9 65 -16 99 -16 99 0
155 41 156 112 0 19 10 35 34 53 52 40 65 76 64 185 0 116 23 246 55 307 20
40 42 58 163 135 210 134 261 197 342 423 57 156 65 175 78 175 22 0 63 -48
75 -90 12 -39 11 -49 -10 -104 -29 -76 -29 -90 -2 -148 27 -60 55 -182 53
-231 -2 -39 -17 -73 -54 -119 -19 -25 -20 -30 -8 -55 8 -15 13 -43 11 -61 -2
-29 1 -34 32 -47 38 -16 47 -31 47 -79 0 -57 -59 -87 -77 -39 -4 9 0 36 9 60
9 24 12 46 8 48 -13 8 -66 -42 -84 -79 -30 -64 -23 -88 49 -151 60 -52 95 -98
95 -124 0 -6 -7 -8 -16 -4 -36 14 -94 -55 -94 -113 0 -15 2 -15 25 0 13 9 40
19 60 22 31 5 40 1 70 -29 19 -19 35 -40 35 -46 0 -15 -23 -14 -38 1 -9 9 -12
8 -12 -4 0 -9 5 -20 10 -23 6 -3 17 -20 26 -37 15 -28 14 -34 -1 -67 -17 -38
-16 -123 1 -129 22 -7 44 9 78 59 19 30 43 65 53 78 24 33 21 131 -7 177 -22
38 -29 157 -10 169 17 10 11 65 -10 95 -15 21 -18 34 -11 52 6 16 5 36 -4 58
-7 19 -18 50 -25 69 -19 49 -7 258 20 342 42 136 38 178 -26 269 -40 57 -70
116 -79 158 l-7 32 51 -20 c53 -21 153 -44 232 -55 58 -7 222 24 313 61 72 28
120 68 161 134 23 37 34 100 18 100 -5 0 -27 -15 -50 -34 -52 -41 -78 -52
-168 -70 -85 -18 -236 -14 -318 8 -113 31 -154 55 -229 135 -41 44 -73 71 -75
63 -3 -6 -9 -10 -14 -6 -8 5 -13 -9 -10 -28 0 -5 -6 -8 -14 -8 -8 0 -15 7 -15
15 0 8 -9 19 -20 25 -23 13 -28 55 -5 47 21 -9 30 12 13 30 -13 12 -22 10 -77
-22 -37 -22 -69 -34 -78 -31 -13 5 -14 9 -5 18 7 7 12 31 12 54 0 56 -35 99
-87 108 -65 12 -73 16 -93 55 -23 47 -46 58 -61 30 -6 -11 -26 -27 -44 -35
-44 -18 -78 -6 -94 35 -33 78 -128 80 -170 4 -17 -34 -13 -62 14 -95 14 -17
24 -33 21 -35 -6 -6 -80 32 -93 49 -6 7 -14 29 -18 49 -10 54 -41 98 -80 115
-39 16 -83 18 -105 4 -12 -8 -11 -12 7 -32 12 -13 26 -36 32 -51 12 -32 15
-107 4 -107 -4 0 -20 12 -36 28 l-28 27 -35 -37 c-40 -44 -45 -88 -15 -147 60
-117 210 -182 420 -181 63 0 113 -2 110 -4 -21 -21 -159 -77 -219 -89 -120
-24 -190 -22 -283 8 -96 31 -126 46 -164 80 -75 67 -98 96 -136 175 -76 155
-59 276 45 328 100 50 216 63 319 37 35 -9 84 -14 119 -12 90 6 92 19 7 31
-21 3 -68 24 -105 47 -63 40 -181 79 -237 79 -29 0 -104 -32 -152 -65 -42 -28
-74 -31 -186 -14 -63 9 -79 9 -105 -5 -17 -9 -41 -16 -54 -16 -20 -1 -17 -6
25 -43 46 -40 49 -47 62 -117 7 -41 19 -91 27 -110 14 -34 113 -158 151 -190
29 -25 34 -69 21 -193 -11 -114 -24 -165 -24 -99 0 18 -5 32 -11 32 -6 0 -36
-23 -66 -50 -30 -27 -60 -50 -68 -50 -7 0 -18 -7 -25 -15 -7 -8 -23 -15 -36
-15 -37 0 -114 41 -114 61 0 10 -4 20 -9 23 -16 10 -32 -22 -40 -76 -11 -85
-31 -99 -76 -53 -34 33 -34 102 -1 171 12 27 31 71 41 97 19 50 52 81 138 131
77 44 93 89 50 138 -13 14 -11 17 16 23 50 11 55 26 32 97 -11 35 -22 70 -24
78 -4 12 -6 10 -12 -5 -32 -91 -53 -113 -82 -84 -18 18 -41 3 -45 -28 -4 -35
-45 -44 -71 -15 -15 16 -15 20 -1 40 8 12 33 31 55 42 32 17 39 26 39 51 0 16
-7 41 -16 55 -9 13 -17 44 -18 69 -1 25 -5 48 -9 51 -4 4 -24 -11 -45 -34 -32
-34 -45 -42 -75 -42 -30 0 -39 -5 -52 -29 -13 -26 -13 -34 0 -72 17 -48 9 -67
-23 -50 -58 31 -119 -2 -158 -82 -23 -49 -35 -63 -58 -69 -40 -10 -119 8 -191
44 -87 43 -122 73 -165 140 -21 32 -42 59 -46 59 -4 0 -14 -24 -21 -53 -31
-121 -174 -353 -218 -353 -26 0 -31 28 -11 70 23 48 20 68 -15 94 -26 19 -30
28 -28 61 2 22 0 42 -3 45 -6 6 -62 -50 -136 -135 -25 -29 -37 -35 -71 -35
-83 0 -124 58 -125 175 0 61 6 91 32 160 38 100 106 189 290 380 96 100 118
128 111 142 -14 26 -11 85 11 209 25 141 25 189 0 259 -22 61 -24 100 -11 147
9 30 -1 55 -13 35z m-413 -1737 c-9 -30 -16 -91 -17 -150 -2 -70 -8 -112 -20
-140 -16 -38 -18 -39 -32 -21 -19 26 -18 128 2 195 16 55 73 175 80 169 2 -2
-4 -26 -13 -53z m3273 -113 c-7 -7 -46 9 -46 18 0 5 11 4 25 -2 14 -6 23 -13
21 -16z m-1516 -120 c-17 -50 -37 -124 -45 -164 -7 -40 -13 -61 -14 -47 -2 44
20 140 51 226 17 46 32 82 34 80 3 -2 -9 -45 -26 -95z m-476 7 c-11 -71 -17
-149 -15 -187 1 -8 27 -41 60 -75 68 -72 89 -110 126 -231 20 -65 43 -112 89
-180 58 -85 81 -126 71 -126 -2 0 -11 13 -20 29 -8 16 -39 58 -69 94 -59 69
-75 101 -96 192 -8 33 -23 76 -35 95 -11 19 -27 48 -35 65 -8 16 -39 52 -67
80 -64 60 -71 86 -49 195 29 143 62 183 40 49z m789 24 c-2 -18 4 -24 25 -28
15 -3 51 -13 80 -21 45 -13 51 -17 42 -33 -5 -10 -23 -24 -39 -31 -30 -12 -41
-10 -103 15 -35 14 -18 -23 31 -71 40 -39 48 -51 38 -62 -21 -26 -56 -33 -87
-17 -47 24 -60 52 -60 128 0 61 2 68 15 57 24 -20 28 -6 8 28 -15 26 -15 32
-3 46 20 25 56 17 53 -11z m-105 -162 c3 -81 15 -109 56 -126 42 -18 99 -5
137 31 30 28 42 20 52 -31 10 -55 -30 -516 -48 -545 -3 -5 -24 -10 -46 -10
-57 0 -93 -38 -109 -113 -6 -31 -14 -58 -18 -60 -4 -2 -30 6 -59 19 -41 18
-54 30 -64 58 -7 20 -16 36 -19 36 -4 0 -14 -16 -23 -35 -24 -51 -22 -103 5
-133 l23 -23 -30 11 c-80 30 -120 123 -77 177 31 40 66 51 117 39 25 -7 50
-17 57 -24 7 -7 18 -12 25 -12 24 0 13 27 -30 74 -24 25 -38 46 -32 46 14 0
50 -38 58 -62 3 -10 12 -15 20 -12 38 14 83 182 92 344 l6 115 -83 65 c-84 65
-96 86 -84 134 4 17 61 96 70 96 1 0 3 -27 4 -59z m-68 -226 c8 -10 12 -57 12
-147 0 -136 -11 -206 -37 -228 -19 -16 -40 35 -67 165 -12 55 -28 108 -37 119
-15 17 -13 20 24 53 36 31 69 51 86 52 4 1 12 -6 19 -14z m-2090 -491 c0 -31
5 -74 12 -95 6 -22 9 -42 5 -45 -11 -11 -74 17 -101 45 l-28 29 21 40 c19 38
64 82 82 82 5 0 9 -25 9 -56z m-257 -818 c25 0 16 -17 -23 -43 -56 -39 -94
-27 -84 26 7 32 7 32 48 25 22 -4 49 -8 59 -8z"/>
<path d="M1691 4236 c-6 -7 -18 -39 -26 -71 -19 -72 -19 -71 -59 -85 l-33 -11
0 -87 c0 -74 -4 -96 -27 -147 -29 -62 -31 -98 -10 -228 5 -31 0 -53 -27 -110
-25 -55 -34 -89 -37 -149 -3 -43 -1 -78 4 -78 5 0 37 38 71 85 35 46 74 92 88
101 23 15 27 15 48 1 14 -9 33 -41 47 -79 15 -44 36 -76 66 -105 50 -49 97
-62 161 -45 87 24 212 4 237 -37 18 -28 23 4 9 47 -13 37 -39 70 -121 152
l-104 104 6 66 c4 36 9 92 12 125 4 39 1 77 -8 109 -15 52 -38 73 -38 36 0
-55 -51 -82 -70 -37 -5 12 -21 73 -35 135 -27 118 -74 258 -100 299 -17 26
-37 30 -54 9z"/>
<path d="M4580 2853 c0 -5 15 -18 33 -30 17 -12 52 -37 77 -54 111 -79 160
-96 314 -112 10 -1 21 3 23 9 2 7 -20 14 -61 18 -36 3 -84 13 -108 22 -50 17
-166 84 -219 126 -36 27 -59 36 -59 21z"/>
<path d="M4040 2093 c0 -4 11 -18 24 -32 34 -36 103 -169 111 -213 8 -45 25
-51 25 -9 0 35 -68 172 -110 224 -29 34 -50 47 -50 30z"/>
<path d="M4167 1504 c-3 -6 1 -39 9 -75 9 -35 18 -86 22 -114 7 -48 8 -49 21
-26 11 20 10 35 -9 105 -29 106 -35 122 -43 110z"/>
<path d="M1616 1470 c-12 -40 -57 -121 -96 -175 -50 -68 -105 -115 -165 -143
-39 -18 -56 -34 -74 -67 -13 -24 -21 -50 -19 -57 3 -7 17 11 32 40 15 30 33
52 42 52 31 0 124 61 157 103 78 97 143 218 135 254 -3 15 -6 13 -12 -7z"/>
<path d="M4358 1124 c-5 -4 -8 -21 -8 -39 0 -22 -9 -40 -30 -60 -19 -19 -30
-39 -30 -57 0 -32 -9 -34 -48 -14 -50 26 -75 62 -80 117 -4 47 -6 50 -18 34
-38 -51 7 -128 97 -170 32 -14 60 -33 63 -42 5 -11 10 -13 17 -6 8 8 8 17 0
31 -18 34 -13 59 20 96 25 29 30 42 27 76 -2 23 -6 38 -10 34z"/>
<path d="M1190 980 c-30 -11 -55 -20 -56 -20 -10 0 -24 -73 -28 -147 -4 -94
-10 -118 -27 -108 -14 9 -10 145 5 188 16 43 5 51 -13 10 -35 -77 -19 -237 30
-285 33 -33 66 -37 71 -7 2 12 20 29 43 42 22 12 42 23 44 24 2 2 2 6 -1 9 -9
9 -87 -34 -100 -56 -10 -15 -16 -17 -32 -8 -20 11 -36 27 -36 38 0 3 13 13 29
23 35 21 61 73 61 124 0 57 16 104 50 143 48 56 43 59 -40 30z"/>
<path d="M1610 876 c0 -7 -14 -19 -31 -26 -28 -12 -30 -16 -24 -46 8 -47 -13
-82 -90 -151 -69 -60 -72 -84 -5 -38 66 45 128 144 117 186 -3 11 6 25 24 38
28 21 39 51 19 51 -5 0 -10 -6 -10 -14z"/>
<path d="M1217 599 c-10 -18 -16 -34 -13 -36 8 -9 98 -5 108 5 5 5 -8 8 -34 8
-41 -1 -43 0 -40 27 4 35 1 34 -21 -4z"/>
</g>
</svg>
