<?xml version="1.0" standalone="no"?>
<!DOCTYPE svg PUBLIC "-//W3C//DTD SVG 20010904//EN"
 "http://www.w3.org/TR/2001/REC-SVG-20010904/DTD/svg10.dtd">
<svg version="1.0" xmlns="http://www.w3.org/2000/svg"
 width="750.000000pt" height="528.000000pt" viewBox="0 0 750.000000 528.000000"
 preserveAspectRatio="xMidYMid meet">

<g transform="translate(0.000000,528.000000) scale(0.100000,-0.100000)"
fill="firebrick" stroke="none">
<path d="M3424 3921 c-45 -36 -126 -97 -180 -135 -55 -37 -142 -98 -194 -134
-52 -36 -117 -89 -144 -117 -45 -46 -86 -118 -86 -150 0 -28 68 -80 165 -125
55 -26 118 -63 140 -83 37 -32 40 -39 40 -85 0 -45 -5 -55 -42 -98 -100 -114
-118 -182 -73 -277 40 -86 123 -137 300 -187 191 -54 291 -105 352 -181 32
-40 81 -69 126 -73 60 -7 239 69 312 131 50 43 51 61 1 161 -52 108 -91 224
-91 273 0 39 1 40 28 34 21 -4 33 0 50 17 37 40 50 100 62 285 6 98 15 194 20
213 12 44 12 50 0 50 -14 0 -56 -76 -85 -155 -14 -39 -32 -89 -41 -112 -24
-66 -46 -59 -151 46 -73 72 -106 96 -174 129 -88 42 -131 54 -289 77 -142 21
-197 33 -229 49 -57 30 -51 44 84 206 49 58 103 128 120 155 32 50 71 142 64
149 -2 2 -41 -26 -85 -63z"/>
<path d="M4547 3609 c-55 -29 -97 -92 -97 -146 0 -53 18 -92 62 -128 53 -44
111 -64 256 -85 314 -47 407 -78 527 -175 88 -72 119 -78 243 -46 152 40 245
108 296 216 25 51 34 105 19 105 -4 0 -34 -18 -68 -40 -112 -73 -177 -94 -285
-94 -87 0 -101 3 -165 34 -38 19 -158 92 -265 163 -245 162 -355 217 -430 217
-35 -1 -69 -8 -93 -21z"/>
<path d="M3485 3509 c-49 -11 -93 -23 -98 -28 -4 -4 20 -11 55 -15 239 -24
395 -92 527 -230 35 -36 67 -66 71 -66 5 0 20 37 35 83 15 45 38 102 51 126
13 24 24 45 24 46 0 9 -215 68 -309 85 -139 24 -237 24 -356 -1z"/>
<path d="M4236 3283 c-8 -140 -25 -288 -38 -337 -11 -43 -66 -106 -92 -106
-10 0 -16 -9 -16 -24 0 -34 45 -157 88 -241 24 -45 37 -84 37 -109 0 -34 -7
-44 -49 -83 -76 -68 -246 -143 -327 -143 -61 0 -103 23 -174 94 -72 72 -142
110 -270 146 -208 58 -276 91 -336 159 -40 45 -69 119 -69 174 0 57 24 109 77
168 56 63 69 93 59 134 -7 28 -79 85 -107 85 -33 0 -108 -156 -144 -300 -48
-192 -58 -211 -210 -360 -227 -223 -278 -280 -495 -555 -62 -79 -129 -149
-180 -189 -100 -79 -146 -132 -160 -184 -7 -26 -14 -55 -17 -64 -2 -11 1 -18
9 -18 33 -1 289 -1 342 -1 l59 1 -5 45 c-3 24 -15 63 -27 87 -20 40 -20 43 -3
59 9 9 76 47 147 84 204 106 215 113 310 210 88 90 94 94 265 178 248 123 306
134 410 81 25 -13 90 -37 145 -54 126 -39 149 -51 153 -75 2 -14 -34 -61 -110
-147 -139 -155 -149 -164 -312 -264 -139 -85 -158 -107 -160 -174 l-1 -35 264
-2 264 -3 -5 65 c-3 36 -13 76 -22 90 -9 13 -16 29 -16 34 0 5 44 36 98 67
137 81 171 107 218 167 22 28 60 63 85 77 38 21 57 25 138 25 l95 0 24 -35
c29 -42 24 -92 -13 -157 -33 -55 -85 -95 -191 -144 -49 -22 -96 -44 -104 -48
-22 -12 -48 -61 -52 -101 -2 -28 0 -34 15 -34 9 1 119 2 243 3 l226 1 -7 42
c-4 23 -19 59 -32 79 -20 30 -22 41 -14 57 6 11 59 61 119 110 59 49 113 101
120 114 7 13 16 46 20 73 7 48 8 49 63 71 61 23 132 68 191 120 60 53 76 53
185 -1 l95 -48 143 7 c132 7 147 6 190 -13 25 -11 57 -29 71 -40 73 -58 176
-269 191 -392 5 -44 4 -48 -36 -84 -32 -30 -41 -45 -41 -72 l0 -33 161 0 162
0 -7 43 c-5 28 -18 54 -40 77 -60 63 -68 89 -77 265 -13 259 -43 334 -206 506
-100 105 -103 110 -103 154 0 94 -52 288 -107 397 -38 75 -143 151 -268 192
-55 18 -164 38 -322 61 -56 8 -126 23 -155 34 -140 50 -267 100 -307 119 -25
12 -46 22 -47 22 -1 0 -5 -48 -8 -107z"/>
</g>
</svg>
