<?xml version="1.0" encoding="iso-8859-1"?>
<!-- Generator: Adobe Illustrator 19.0.0, SVG Export Plug-In . SVG Version: 6.00 Build 0)  -->
<svg version="1.1" id="Capa_1" xmlns="http://www.w3.org/2000/svg" xmlns:xlink="http://www.w3.org/1999/xlink" x="0px" y="0px"
	 viewBox="0 0 512.002 512.002" style="enable-background:new 0 0 512.002 512.002;" xml:space="preserve">
<path style="fill:#006EFF;" d="M376.5,482.001c-58.172,0-105.5-47.327-105.5-105.5c0-18.85,5.035-37.349,14.561-53.499
	c2.932-4.974,2.746-11.194-0.473-15.987c-1.789-2.665-4.385-4.686-7.406-5.765c-22.387-7.996-45.898-12.05-69.881-12.05
	C93.219,289.2,0,382.419,0,497.001c0,8.284,6.717,15,15,15h361.5c8.285,0,15-6.716,15-15
	C391.5,488.717,384.785,482.001,376.5,482.001z"/>
<path style="fill:#0050C3;" d="M376.5,482.001c-58.172,0-105.5-47.327-105.5-105.5c0-18.85,5.035-37.349,14.561-53.499
	c2.932-4.974,2.746-11.194-0.473-15.987c-1.789-2.665-4.385-4.686-7.406-5.765c-22.387-7.996-45.898-12.05-69.881-12.05v222.801
	H376.5c8.285,0,15-6.716,15-15C391.5,488.717,384.785,482.001,376.5,482.001z"/>
<path style="fill:#FDD1A3;" d="M207.801,0.001c-88.004,0-159.6,71.596-159.6,159.6s71.596,159.6,159.6,159.6
	s159.6-71.596,159.6-159.6S295.805,0.001,207.801,0.001z"/>
<path style="fill:#FFBB85;" d="M207.801,0.001L207.801,0.001V319.2l0,0c88.004,0,159.6-71.596,159.6-159.6
	S295.805,0.001,207.801,0.001z"/>
<path style="fill:#DC4BDE;" d="M497.002,482.001H376.5c-58.172,0-105.5-47.327-105.5-105.5s47.328-105.5,105.5-105.5
	c58.174,0,105.502,47.327,105.502,105.5c0,13.877-11.289,25.166-25.166,25.166s-25.168-11.289-25.168-25.166
	c0-30.419-24.748-55.167-55.168-55.167c-30.418,0-55.166,24.748-55.166,55.167s24.748,55.166,55.166,55.166
	c15.822,0,30.1-6.705,40.168-17.41c10.068,10.705,24.346,17.41,40.168,17.41c30.418,0,55.166-24.747,55.166-55.166
	c0-74.715-60.785-135.5-135.502-135.5c-74.715,0-135.5,60.785-135.5,135.5s60.785,135.5,135.5,135.5h120.502c8.283,0,15-6.716,15-15
	C512.002,488.717,505.285,482.001,497.002,482.001z M376.5,401.667c-13.877,0-25.166-11.289-25.166-25.166
	s11.289-25.167,25.166-25.167c13.879,0,25.168,11.29,25.168,25.167C401.668,390.378,390.379,401.667,376.5,401.667z"/>
<g>
	<path style="fill:#9B2E5D;" d="M497.002,482.001H376.5v30h120.502c8.283,0,15-6.716,15-15
		C512.002,488.717,505.285,482.001,497.002,482.001z"/>
	<path style="fill:#9B2E5D;" d="M482.002,376.501c0,13.877-11.289,25.166-25.166,25.166s-25.168-11.289-25.168-25.166
		c0-30.419-24.748-55.167-55.168-55.167v30c13.879,0,25.168,11.29,25.168,25.167c0,13.877-11.289,25.166-25.168,25.166v30
		c15.822,0,30.1-6.705,40.168-17.41c10.068,10.705,24.346,17.41,40.168,17.41c30.418,0,55.166-24.747,55.166-55.166
		c0-74.715-60.785-135.5-135.502-135.5v30C434.674,271.001,482.002,318.328,482.002,376.501z"/>
</g>
<g>
</g>
<g>
</g>
<g>
</g>
<g>
</g>
<g>
</g>
<g>
</g>
<g>
</g>
<g>
</g>
<g>
</g>
<g>
</g>
<g>
</g>
<g>
</g>
<g>
</g>
<g>
</g>
<g>
</g>
</svg>
