<svg height="504pt" viewBox="0 -5 504.80724 504" width="504pt" xmlns="http://www.w3.org/2000/svg"><path d="m19.671875 367.59375.167969.253906.085937.085938 30.207031 54.871094 7.339844 13.398437.171875.167969c0 .085937 0 .085937.085938.171875l-.34375-.597657c0 .171876.171875.257813.257812.425782.085938.171875 0 .085937.085938.171875 26.453125 33.792969 105.214843 58.707031 198.3125 58.707031 93.097656 0 171.863281-24.914062 198.316406-58.707031.085937-.085938.085937-.085938.085937-.171875 0-.085938.253907-.253906.253907-.425782 0-.171874.171875-.171874.171875-.257812l-.511719.855469c.085937-.085938.085937-.085938.085937-.171875l.167969-.167969 7.339844-13.398437 30.207031-54.871094.085938-.085938.171875-.253906zm0 0" fill="#b19046"/><path d="m319.617188 244.714844c105.898437 11.007812 183.894531 48.808594 183.894531 93.78125 0 53.671875-110.765625 97.109375-247.46875 97.109375s-247.464844-43.4375-247.464844-97.109375c0-52.480469 106.238281-95.234375 239.101563-96.941406 0-.085938.085937 0 .085937 0zm0 0" fill="#e4c05c"/><path d="m281.644531 341.738281c-30.039062 0-55.554687-10.839843-64.597656-26.027343-6.40625 1.457031-13.082031-.886719-17.164063-6.035157-4.082031-5.148437-4.847656-12.179687-1.96875-18.085937 2.878907-5.90625 8.894532-9.632813 15.460938-9.585938.800781.011719 1.597656.066406 2.390625.171875-1.570313-2.632812-2.398437-5.640625-2.390625-8.707031.03125-9.414062 7.65625-17.035156 17.070312-17.066406 3.0625-.007813 6.070313.820312 8.703126 2.390625-.101563-.792969-.160157-1.589844-.171876-2.390625 0-.941406.085938-1.886719.257813-2.8125 1.371094-8.21875 8.480469-14.242188 16.808594-14.253906 3.40625-.019532 6.738281.992187 9.558593 2.902343 2.363282-6.839843 8.804688-11.429687 16.042969-11.429687s13.679688 4.589844 16.042969 11.429687c3.933594-2.636719 8.789062-3.519531 13.402344-2.433593 4.613281 1.082031 8.566406 4.035156 10.917968 8.152343 1.542969 2.542969 2.339844 5.472657 2.300782 8.445313-.007813.800781-.066406 1.597656-.167969 2.390625 2.628906-1.570313 5.636719-2.398438 8.703125-2.390625 9.414062.03125 17.039062 7.652344 17.066406 17.066406.007813 3.066406-.816406 6.074219-2.390625 8.707031 1.558594-.230469 3.136719-.230469 4.695313 0" fill="#f9eab0"/><path d="m256.042969 316.136719c-2.261719 0-4.433594-.898438-6.03125-2.5-12.519531-12.519531-2.757813-33.144531-1.605469-35.445313 1.359375-2.730468 4.070312-4.53125 7.113281-4.71875s5.957031 1.261719 7.640625 3.800782c1.6875 2.542968 1.886719 5.789062.527344 8.519531-1.933594 3.949219-4.476562 12.910156-1.609375 15.777343 2.4375 2.441407 3.167969 6.109376 1.847656 9.300782-1.320312 3.1875-4.429687 5.265625-7.882812 5.265625zm0 0" fill="#cbb292"/><path d="m310.835938 308.371094c-.375 0-.753907-.023438-1.125-.074219-2.246094-.300781-4.28125-1.476563-5.65625-3.273437-1.375-1.796876-1.980469-4.066407-1.683594-6.3125.113281-4.472657-.839844-8.910157-2.78125-12.945313-1.960938-4.203125-.207032-9.203125 3.957031-11.257813 4.160156-2.054687 9.199219-.40625 11.34375 3.707032 3.445313 7.058594 4.960937 14.90625 4.394531 22.742187-.5625 4.238281-4.171875 7.410157-8.449218 7.414063zm0 0" fill="#cbb292"/><path d="m435.242188 324.671875c-.796876.011719-1.59375.066406-2.386719.167969 1.570312-2.628906 2.398437-5.636719 2.386719-8.703125-.027344-9.414063-7.652344-17.039063-17.066407-17.066407-3.0625-.007812-6.074219.816407-8.703125 2.390626.101563-.792969.160156-1.589844.171875-2.390626-.027343-9.414062-7.652343-17.039062-17.066406-17.066406-3.40625-.019531-6.738281.992188-9.558594 2.902344-2.363281-6.84375-8.804687-11.433594-16.042969-11.433594-7.238281 0-13.679687 4.589844-16.042968 11.433594-2.820313-1.910156-6.152344-2.921875-9.558594-2.902344-9.414062.027344-17.035156 7.652344-17.066406 17.066406.011718.800782.070312 1.597657.171875 2.390626-2.628907-1.574219-5.640625-2.398438-8.703125-2.390626-9.414063.027344-17.039063 7.652344-17.066406 17.066407-.007813 3.066406.816406 6.074219 2.386718 8.703125-.789062-.101563-1.589844-.15625-2.386718-.167969-6.570313-.046875-12.582032 3.679687-15.460938 9.585937-2.878906 5.902344-2.113281 12.9375 1.96875 18.085938 4.082031 5.144531 10.753906 7.492188 17.160156 6.035156 9.046875 15.1875 34.5625 26.023438 64.597656 26.023438 30.039063 0 55.550782-10.835938 64.597657-26.023438 6.40625 1.457032 13.078125-.890625 17.160156-6.035156 4.085937-5.148438 4.851563-12.183594 1.96875-18.085938-2.878906-5.90625-8.890625-9.632812-15.460937-9.585937zm0 0" fill="#f5efca"/><path d="m341.375 358.804688c-2.261719 0-4.429688-.902344-6.03125-2.5-12.519531-12.519532-2.757812-33.144532-1.605469-35.449219 2.101563-4.21875 7.222657-5.9375 11.445313-3.839844 4.21875 2.101563 5.9375 7.222656 3.839844 11.445313-1.9375 3.949218-4.480469 12.910156-1.613282 15.777343 2.441406 2.441407 3.167969 6.109375 1.847656 9.296875-1.320312 3.1875-4.429687 5.269532-7.882812 5.269532zm0 0" fill="#cbb292"/><path d="m392.578125 358.804688c-3.453125 0-6.5625-2.082032-7.882813-5.269532-1.320312-3.1875-.589843-6.855468 1.847657-9.296875 2.78125-2.792969.480469-11.597656-1.601563-15.753906-2.109375-4.21875-.398437-9.34375 3.820313-11.449219 4.21875-2.109375 9.347656-.398437 11.453125 3.820313 1.152344 2.304687 10.914062 22.929687-1.605469 35.449219-1.597656 1.597656-3.769531 2.5-6.03125 2.5zm0 0" fill="#cbb292"/><path d="m59.777344 324.671875c-1.132813 31.792969 23.675781 58.511719 55.464844 59.730469 31.792968-1.21875 56.601562-27.9375 55.46875-59.730469" fill="#f5efca"/><path d="m170.710938 324.671875c-.058594 3.132813-1.203126 6.148437-3.242188 8.53125-7.511719 9.984375-28.074219 17.066406-52.226562 17.066406-24.148438 0-44.714844-7.082031-52.222657-17.066406-2.039062-2.382813-3.183593-5.398437-3.242187-8.53125 0-14.167969 24.832031-25.601563 55.464844-25.601563 30.636718 0 55.46875 11.433594 55.46875 25.601563zm0 0" fill="#f5efca"/><path d="m167.46875 333.203125c0-9.425781-23.382812-17.066406-52.226562-17.066406-28.839844 0-52.222657 7.640625-52.222657 17.066406s23.382813 17.066406 52.222657 17.066406c28.84375 0 52.226562-7.640625 52.226562-17.066406zm0 0" fill="#805333"/><path d="m309.207031 115.007812 189.125-86.1875c2.414063-1.234374 4.1875-3.441406 4.871094-6.066406s.214844-5.414062-1.289063-7.671875l-6.230468-10.410156c-1.375-2.113281-3.542969-3.585937-6.011719-4.082031-2.472656-.5000002-5.042969.019531-7.128906 1.433594l-192.964844 104.960937-16.46875 21.417969zm0 0" fill="#fac176"/><path d="m315.777344 171.070312c-1.234375-.011718-2.464844-.152343-3.667969-.425781-.085937.171875-.171875.253907-.257813.425781-9.300781 14.933594-34.558593 25.601563-64.339843 25.601563-30.039063 0-55.554688-10.839844-64.597657-26.027344-6.40625 1.457031-13.082031-.886719-17.164062-6.035156s-4.847656-12.179687-1.96875-18.085937 8.894531-9.632813 15.460938-9.585938c.800781.011719 1.597656.066406 2.390624.171875-1.570312-2.632813-2.398437-5.640625-2.390624-8.707031.03125-9.414063 7.652343-17.035156 17.066406-17.066406 3.066406-.007813 6.074218.820312 8.707031 2.390624-.105469-.792968-.160156-1.589843-.171875-2.390624.027344-9.414063 7.652344-17.039063 17.066406-17.066407 3.40625-.019531 6.738282.992188 9.558594 2.902344 2.363281-6.839844 8.804688-11.429687 16.042969-11.429687s13.679687 4.589843 16.042969 11.429687c2.816406-1.910156 6.148437-2.921875 9.554687-2.902344 7.738281.015625 14.496094 5.234375 16.46875 12.714844.421875 1.414063.621094 2.878906.597656 4.351563-.011719.800781-.066406 1.597656-.167969 2.390624 6.707032-3.972656 15.25-2.894531 20.761719 2.617188s6.589844 14.058594 2.617188 20.765625c.792969-.105469 1.589843-.160156 2.390625-.171875 7.078125.03125 13.414062 4.402344 15.957031 11.007812" fill="#f9eab0"/><path d="m221.910156 171.070312c-2.261718 0-4.433594-.898437-6.03125-2.5-12.519531-12.519531-2.757812-33.144531-1.605468-35.449218 2.097656-4.21875 7.222656-5.9375 11.441406-3.839844 4.222656 2.101562 5.941406 7.222656 3.839844 11.445312-1.9375 3.949219-4.480469 12.910157-1.613282 15.777344 2.441406 2.441406 3.171875 6.109375 1.851563 9.296875-1.320313 3.191407-4.433594 5.269531-7.882813 5.269531zm0 0" fill="#cbb292"/><path d="m276.863281 160.832031h-.09375c-2.261719-.027343-4.421875-.949219-6.003906-2.566406-1.585937-1.617187-2.460937-3.800781-2.433594-6.0625-.179687-3.96875-1.152343-7.863281-2.859375-11.453125-1.363281-2.726562-1.167968-5.976562.515625-8.519531 1.679688-2.542969 4.59375-4 7.636719-3.816407 3.042969.1875 5.757812 1.980469 7.121094 4.707032 2.914062 6.019531 4.5 12.59375 4.652344 19.277344-.054688 4.675781-3.859376 8.433593-8.535157 8.433593zm0 0" fill="#cbb292"/><path d="m494.976562 137.039062-230.765624 16.316407c-4.609376.367187-8.164063 4.214843-8.167969 8.839843 0 4.902344 3.972656 8.875 8.875 8.875h231.355469c4.714843 0 8.535156-3.820312 8.535156-8.53125v-17.070312c-.003906-2.488281-1.089844-4.851562-2.980469-6.472656-1.886719-1.621094-4.390625-2.335938-6.851563-1.957032zm0 0" fill="#fac176"/><g fill="#af8066"><path d="m17.109375 179.605469c-3.441406.007812-6.550781-2.046875-7.886719-5.21875-1.335937-3.167969-.640625-6.832031 1.769532-9.289063 4.316406-5.601562 6.488281-12.5625 6.117187-19.628906.375-7.0625-1.800781-14.027344-6.125-19.625-7.535156-8.746094-11.445313-20.039062-10.9414062-31.574219-.4960938-11.566406 3.4492192-22.882812 11.0351562-31.632812 3.347656-3.234375 8.667969-3.1875 11.960937.105469 3.292969 3.289062 3.339844 8.613281.105469 11.960937-4.269531 5.601563-6.40625 12.535156-6.035156 19.566406-.375 7.066407 1.800781 14.03125 6.128906 19.628907 7.53125 8.746093 11.445313 20.039062 10.9375 31.570312.5 11.570312-3.449219 22.886719-11.03125 31.636719-1.601562 1.597656-3.769531 2.496093-6.035156 2.5zm0 0"/><path d="m68.308594 128.402344c-3.4375.011718-6.546875-2.046875-7.886719-5.214844-1.335937-3.171875-.636719-6.832031 1.769531-9.289062 4.316406-5.601563 6.488282-12.566407 6.117188-19.628907.375-7.0625-1.796875-14.027343-6.125-19.625-7.53125-8.75-11.445313-20.039062-10.941406-31.574219-.496094-11.566406 3.453124-22.886718 11.035156-31.632812 3.347656-3.234375 8.671875-3.1875 11.960937.105469 3.292969 3.289062 3.339844 8.613281.105469 11.960937-4.269531 5.601563-6.40625 12.535156-6.035156 19.566406-.371094 7.066407 1.800781 14.03125 6.128906 19.625 7.53125 8.75 11.445312 20.042969 10.9375 31.574219.5 11.566407-3.449219 22.886719-11.03125 31.632813-1.601562 1.601562-3.769531 2.5-6.035156 2.5zm0 0"/><path d="m119.511719 179.605469c-3.441407.007812-6.550781-2.046875-7.886719-5.21875-1.339844-3.167969-.640625-6.832031 1.765625-9.289063 4.320313-5.601562 6.488281-12.5625 6.121094-19.628906.371093-7.0625-1.800781-14.027344-6.128907-19.625-7.53125-8.746094-11.445312-20.039062-10.9375-31.574219-.5-11.566406 3.449219-22.882812 11.03125-31.632812 3.347657-3.234375 8.671876-3.1875 11.960938.105469 3.292969 3.289062 3.339844 8.613281.105469 11.960937-4.269531 5.601563-6.40625 12.535156-6.03125 19.566406-.375 7.066407 1.796875 14.03125 6.125 19.628907 7.53125 8.746093 11.445312 20.039062 10.941406 31.570312.496094 11.570312-3.453125 22.886719-11.035156 31.636719-1.601563 1.597656-3.769531 2.496093-6.03125 2.5zm0 0"/></g></svg>