<svg id="_x33_0" enable-background="new 0 0 64 64" height="512" viewBox="0 0 64 64" width="512" xmlns="http://www.w3.org/2000/svg"><g><g><path d="m51 13v44c0 2.76-2.24 5-5 5h-28c-2.76 0-5-2.24-5-5v-44c0-2.76 2.24-5 5-5h10v4h-1c-1.66 0-3 1.34-3 3 0 .83.34 1.58.88 2.12s1.29.88 2.12.88h10c1.66 0 3-1.34 3-3 0-.83-.34-1.58-.88-2.12s-1.29-.88-2.12-.88h-1v-4h10c2.76 0 5 2.24 5 5z" fill="#ccd1d9"/><path d="m36 3v5 4 1c0 .55-.45 1-1 1h-6c-.55 0-1-.45-1-1v-1-4-5c0-.55.45-1 1-1h6c.55 0 1 .45 1 1z" fill="#fcd770"/><path d="m47 24v32c0 1.1-.9 2-2 2h-26c-1.1 0-2-.9-2-2v-32c0-1.1.9-2 2-2h26c1.1 0 2 .9 2 2z" fill="#ffeaa7"/><path d="m25 50h-4v4h4 4v-4z" fill="#e6e9ed"/><path d="m39.75 37.37c-1.13 1.7-2.79 2.97-4.73 3.62-.47-.41-.8-.96-.94-1.57v-.01c1.15-.7 1.92-1.96 1.92-3.41v-1.76c0-.76-.43-1.45-1.11-1.79l-2.89-1.45-2.89 1.45c-.68.34-1.11 1.03-1.11 1.79v1.76c0 1.1.45 2.1 1.17 2.83l.75.58v.01c-.14.61-.47 1.16-.94 1.57-1.94-.65-3.6-1.92-4.73-3.62l-.25-.37.93-5.1c.31-1.71 1.21-3.18 2.47-4.23 1.25-1.05 2.86-1.67 4.6-1.67 3.47 0 6.45 2.48 7.07 5.9l.93 5.1z" fill="#656d78"/><path d="m34.08 39.42c.14.61.47 1.16.94 1.57.33.29.72.51 1.16.63l2.64.76c1.29.37 2.18 1.54 2.18 2.88v.74h-18v-.74c0-1.34.89-2.51 2.18-2.88l2.64-.76c.44-.12.83-.34 1.16-.63.47-.41.8-.96.94-1.57v-.01c.61.38 1.32.59 2.08.59s1.47-.21 2.08-.59z" fill="#b4dd7f"/><path d="m36 34.24v1.76c0 1.45-.77 2.71-1.92 3.41-.61.38-1.32.59-2.08.59s-1.47-.21-2.08-.59l-.75-.58c-.72-.73-1.17-1.73-1.17-2.83v-1.76c0-.76.43-1.45 1.11-1.79l2.89-1.45 2.89 1.45c.68.34 1.11 1.03 1.11 1.79z" fill="#f0d0b4"/></g><g><circle cx="32" cy="6" r="1"/><path d="m45 21h-26c-1.654 0-3 1.346-3 3v32c0 1.654 1.346 3 3 3h26c1.654 0 3-1.346 3-3v-32c0-1.654-1.346-3-3-3zm1 35c0 .552-.448 1-1 1h-26c-.552 0-1-.448-1-1v-32c0-.552.448-1 1-1h26c.552 0 1 .448 1 1z"/><path d="m46 7h-9v-4c0-1.103-.897-2-2-2h-6c-1.103 0-2 .897-2 2v4h-9c-3.309 0-6 2.691-6 6v44c0 3.309 2.691 6 6 6h28c3.309 0 6-2.691 6-6v-44c0-3.309-2.691-6-6-6zm-17-4h6l.002 10h-6.002zm6 12c1.103 0 2-.897 2-2 1.103 0 2 .897 2 2s-.897 2-2 2h-10c-1.103 0-2-.897-2-2s.897-2 2-2c0 1.103.897 2 2 2zm15 42c0 2.206-1.794 4-4 4h-28c-2.206 0-4-1.794-4-4v-44c0-2.206 1.794-4 4-4h9v2c-2.206 0-4 1.794-4 4s1.794 4 4 4h10c2.206 0 4-1.794 4-4s-1.794-4-4-4v-2h9c2.206 0 4 1.794 4 4z"/><path d="m20 55h10v-6h-10zm8-2h-2v-2h2zm-6-2h2v2h-2z"/><path d="m32 53h12v2h-12z"/><path d="m32 49h4v2h-4z"/><path d="m38 49h6v2h-6z"/><path d="m42 45.263c0-1.776-1.193-3.358-2.901-3.847l-1.653-.471c1.244-.769 2.324-1.797 3.141-3.021l.47-.705-.998-5.494c-.709-3.897-4.098-6.725-8.059-6.725s-7.35 2.828-8.057 6.725l-.999 5.494.47.705c.816 1.223 1.897 2.251 3.141 3.02l-1.653.472c-1.709.488-2.902 2.07-2.902 3.847v1.737h20zm-13-9.263v-1.764c0-.382.212-.725.553-.895l2.447-1.223 2.447 1.224c.341.17.553.512.553.894v1.764c0 1.654-1.346 3-3 3s-3-1.346-3-3zm-3.922.814-.022-.033.855-4.699c.534-2.944 3.096-5.082 6.089-5.082s5.555 2.138 6.09 5.082l.854 4.699-.022.033c-.882 1.323-2.157 2.343-3.613 2.969-.009-.014-.021-.026-.029-.04 1.045-.917 1.72-2.246 1.72-3.743v-1.764c0-1.144-.636-2.172-1.658-2.684l-3.342-1.67-3.342 1.671c-1.022.511-1.658 1.54-1.658 2.683v1.764c0 1.497.675 2.826 1.72 3.743-.008.014-.02.025-.029.039-1.456-.625-2.73-1.645-3.613-2.968zm-1.06 8.186c.104-.778.664-1.44 1.433-1.66l2.649-.757c1.012-.29 1.849-.965 2.36-1.851.488.16.999.268 1.54.268s1.052-.108 1.54-.268c.512.886 1.349 1.561 2.361 1.852l2.648.756c.769.22 1.328.882 1.433 1.66z"/></g></g></svg>