<svg height="512pt" viewBox="-4 0 512 512.01012" width="512pt" xmlns="http://www.w3.org/2000/svg"><path d="m392.421875 451.089844-.171875.175781c0 24.210937-53.804688 60.746094-140.582031 60.746094-86.78125 0-140.585938-36.535157-140.585938-60.746094l-.171875-.175781c33.667969 12.585937 89.019532-6.332032 145.511719-6.332032s102.332031 18.917969 136 6.332032zm0 0" fill="#41767f"/><path d="m497.601562 303.652344c-21.957031 59.617187-57.972656 104.828125-105.179687 147.4375-33.667969 12.585937-62.652344 28.203125-140.753906 28.203125-83.890625 0-107.089844-15.617188-140.757813-28.203125-47.121094-42.609375-83.136718-87.734375-105.089844-147.265625 8.503907 12.0625 25.945313-54.84375 50.070313-45.644531 10.847656 4.253906 22.910156-9.285157 36.1875-5.988282 8.246094 2.167969 16.921875 4.078125 25.949219 5.816406 8.761718 1.820313 17.789062-22.652343 27.246094-21.347656 13.453124 1.992188 27.511718-5.035156 42.175781-3.820312 7.550781.519531 15.1875 1.042968 22.910156 1.476562 4.339844.257813 8.765625.433594 13.277344.519532 9.199219.347656 18.570312.519531 28.03125.519531 3.730469 0 7.375 0 11.019531-.085938 15.53125-.171875 30.632812-.867187 45.210938-1.820312 18.660156-1.390625 36.621093 5.292969 53.457031 2.773437 14.40625-2.167968 28.117187 21.261719 40.785156 18.226563h.089844c8.503906-1.910157 16.574219-4.078125 24.125-6.421875 12.320312-3.644532 23.515625 9.542968 33.234375 5.117187 17.964844-8.242187 31.066406 60.574219 38.011718 50.507813zm0 0" fill="#67b9cc"/><path d="m301.910156 209.84375-10.828125 60.226562c-9.6875-.007812-19.363281.746094-28.933593 2.253907-19.613282 0-29.417969 7.039062-43.570313 18.578125-2.953125.175781-20.933594-.675782-23.882813-.414063-12.410156-11.714843-14.03125-19.09375-32.523437-19.09375-27.589844 0-44.667969-.109375-55.863281 23.144531-26.03125 9.546876-29.105469 16.089844-29.105469 29.105469 0 3.734375-23.828125 9.183594-21.3125 12.652344-24.125-9.195313-41.566406-20.390625-50.070313-32.453125v-.105469c-.085937-.085937-.085937-.085937-.085937-.171875-3.625-4.808594-5.632813-10.644531-5.73046875-16.664062 0-43.386719 112.64062475-78.621094 251.66406275-78.621094 17.179687 0 34.015625.519531 50.242187 1.5625zm0 0" fill="#41767f"/><path d="m503.328125 286.902344c-.097656 6.019531-2.105469 11.855468-5.726563 16.664062v.085938c-10.089843 12.3125-23.179687 21.816406-38.011718 27.597656-1.011719-11.367188-4.539063-22.363281-10.328125-32.195312-13.972657-23.996094-39.660157-38.738282-67.425781-38.707032-16.574219 0-25.019532 12.585938-37.601563 21.4375h-3.800781c-5.726563-.78125 1.464844 6.289063-4.523438 5.683594l-13.492187.363281c-.175781.085938-11.90625-1.441406-11.992188-1.441406-1.5625-1.386719-10.335937-11.375-11.984375-12.589844l63.957032-57.449219c83.480468 12.757813 140.929687 39.570313 140.929687 70.550782zm0 0" fill="#41767f"/><path d="m341.484375 213.488281-10.847656 66.109375-36.128907-27.925781 25.539063-40.441406c7.292969.609375 14.40625 1.390625 21.4375 2.257812zm0 0" fill="#41767f"/><path d="m86.871094 324.390625c.328125 8.003906 2.09375 15.878906 5.207031 23.257813-12.296875-3-24.382813-6.796876-36.1875-11.367188-2.402344-3.113281-3.738281-6.914062-3.816406-10.847656 0-13.015625 15.53125-24.90625 41.566406-34.453125-4.539063 9.390625-6.882813 19.6875-6.855469 30.113281 0 1.128906 0 2.257812.085938 3.296875zm0 0" fill="#cb8252"/><path d="m212.789062 270.070312c-1.808593 1.382813-3.519531 2.890626-5.121093 4.511719-1.152344-1.386719-2.398438-2.691406-3.730469-3.90625 2.949219-.261719 5.902344-.433593 8.851562-.605469zm0 0" fill="#cb8252"/><path d="m337.230469 274.40625-1.820313 1.304688h-.089844c-.085937 0-.085937 0-.257812.257812-2.394531 1.773438-4.65625 3.714844-6.769531 5.816406h-.085938c-2.625-3.363281-5.558593-6.472656-8.765625-9.285156-.085937-.089844-.175781-.175781-.261718-.175781.085937 0 .261718.085937.433593 0h.089844c5.984375.609375 11.800781 1.300781 17.527344 2.082031zm0 0" fill="#cb8252"/><path d="m202.488281 344.238281c0 10.152344-18.421875 9.746094-15.039062 18.769531-11.542969-.953124-22.738281-2.167968-33.582031-3.730468-2.867188-.257813-5.730469-.695313-8.59375-1.128906-2.863282-.433594-5.726563-.78125-8.589844-1.300782-3.472656-.519531-6.855469-1.128906-10.152344-1.734375v-.085937c-2.863281-.433594-5.730469-.957032-8.503906-1.5625-2.953125-.609375-5.902344-1.128906-8.765625-1.824219-5.902344-1.214844-11.628907-2.515625-17.183594-3.992187-3.113281-7.378907-4.878906-15.253907-5.207031-23.257813-.085938-1.039063-.085938-2.167969-.085938-3.296875-.003906-27.734375 16.503906-52.808594 41.980469-63.773438 25.472656-10.960937 55.03125-5.710937 75.171875 13.355469 1.332031 1.214844 2.578125 2.519531 3.730469 3.90625-12.0625 11.453125 3.296875 27.769531 0 44.734375-2.257813 8.1875-3.988281 16.511719-5.179688 24.921875zm0 0" fill="#f3d55b"/><path d="m330.636719 340.1875c0 8.851562-25.402344 15.621094-22.710938 23.429688-11.800781.78125-24.039062 1.386718-36.535156 1.648437-2.863281.085937-5.726563.171875-8.675781.171875-2.953125 0-5.816406.089844-8.851563.089844h-2.195312c-6.511719 0-12.933594-.089844-19.355469-.347656-2.949219 0-5.8125-.085938-8.675781-.175782-3.039063-.085937-5.988281-.171875-8.9375-.34375-1.476563 0-2.863281-.089844-4.339844-.175781-7.722656-.433594-15.359375-.953125-22.910156-1.476563-3.460938-9.238281-5.222657-19.027343-5.207031-28.894531-.011719-5.335937.511718-10.65625 1.5625-15.882812 3.214843-16.679688 11.558593-31.9375 23.863281-43.648438 1.601562-1.621093 3.3125-3.128906 5.121093-4.511719 20.058594-16.289062 46.605469-22.203124 71.679688-15.96875l-14.839844 37.75c-.851562 2.140626-.820312 4.53125.089844 6.648438.914062 2.113281 2.628906 3.78125 4.769531 4.632812 1.019531.410157 2.113281.613282 3.210938.605469 3.558593.003907 6.753906-2.164062 8.070312-5.464843l12.929688-32.890626c.371093 1.648438 1.25 3.136719 2.519531 4.25 1.671875 1.578126 3.910156 2.421876 6.207031 2.339844 2.296875-.082031 4.46875-1.078125 6.027344-2.773437l.867187-.867188c1.648438 1.214844 3.296876 2.605469 4.859376 3.992188.085937 0 .175781.085937.261718.175781 3.207032 2.8125 6.140625 5.921875 8.765625 9.285156-11.109375 10.410156 5.316407 26.121094 1.933594 41.652344-1.300781 5.46875-26.40625 9.113281-26.40625 14.925781zm0 0" fill="#e4c05c"/><path d="m459.589844 331.25c-8.0625 3.628906-16.320313 6.816406-24.730469 9.542969-2.777344.957031-5.640625 1.824219-8.503906 2.691406-2.691407.867187-5.46875 1.648437-8.332031 2.429687-2.429688.695313-4.859376 1.386719-7.378907 1.996094-2.773437.695313-5.550781 1.386719-8.414062 1.996094h-.089844c-2.863281.695312-5.726563 1.386719-8.761719 1.910156-7.550781 1.734375-15.363281 3.210938-23.519531 4.511719-2.777344.519531-5.640625.953125-8.503906 1.386719s-5.726563.867187-8.679688 1.214844c-14.316406 1.996093-29.328125 3.558593-44.777343 4.6875-2.769532-8.101563-4.179688-16.605469-4.164063-25.167969v-.085938c-.027344-5.695312.613281-11.375 1.910156-16.921875 3.328125-15.199218 11.195313-29.03125 22.5625-39.65625h.085938c2.113281-2.101562 4.375-4.042968 6.769531-5.816406.171875-.257812.171875-.257812.257812-.257812h.089844l1.820313-1.304688h.085937c13.03125-9.171875 28.582032-14.082031 44.519532-14.058594 27.765624-.03125 53.453124 14.710938 67.425781 38.707032 5.789062 9.832031 9.316406 20.828124 10.328125 32.195312zm0 0" fill="#f3d55b"/><g fill="#b19046"><path d="m254.875 303.132812c-1.300781.519532-32.453125 14.144532-22.734375 60.050782.140625.65625.199219 1.324218.171875 1.996094-2.949219 0-5.8125-.085938-8.675781-.175782-3.039063-.085937-5.988281-.171875-8.9375-.34375-8.941407-47.125 17.960937-71.335937 33.757812-77.667968 4.457031-1.773438 9.507813.402343 11.28125 4.859374 1.773438 4.457032-.402343 9.507813-4.863281 11.28125zm0 0"/><path d="m272.925781 346.175781s-2.949219 2.082031-2.949219 8.9375c.015626 2.785157.394532 5.554688 1.128907 8.242188.171875.621093.257812 1.265625.257812 1.910156-2.863281.085937-5.726562.171875-8.675781.171875s-5.816406.089844-8.851562.089844c-5.640626-26.035156 10.585937-34.453125 11.28125-34.800782 4.195312-1.746093 9.027343.039063 11.078124 4.097657 2.054688 4.054687.625 9.007812-3.269531 11.351562zm0 0"/><path d="m150.742188 294.453125c-1.128907.433594-28.726563 12.671875-24.125 58.144531.101562.808594.074218 1.628906-.085938 2.429688-2.863281-.433594-5.730469-.957032-8.503906-1.5625-2.953125-.609375-5.902344-1.128906-8.765625-1.824219-4.6875-56.753906 33.410156-72.632813 35.058593-73.328125 4.457032-1.773438 9.507813.402344 11.28125 4.859375 1.773438 4.457031-.402343 9.507813-4.859374 11.28125zm0 0"/><path d="m162.371094 335.847656c-5.183594 6.574219-8.132813 14.628906-8.417969 22.996094.011719.148438-.015625.300781-.085937.433594-2.867188-.257813-5.730469-.695313-8.59375-1.128906-2.863282-.433594-5.726563-.78125-8.589844-1.300782.617187-12.261718 5.324218-23.960937 13.363281-33.234375 3.410156-3.386719 8.914063-3.386719 12.324219 0 3.363281 3.382813 3.363281 8.847657 0 12.234375zm0 0"/><path d="m434.859375 340.792969c-2.777344.957031-5.640625 1.824219-8.503906 2.691406-2.691407.867187-5.46875 1.648437-8.332031 2.429687-.207032-.617187-.324219-1.257812-.347657-1.910156.128907-16.675781-8.328125-32.25-22.390625-41.21875-3-1.25-5.054687-4.074218-5.3125-7.320312-.261718-3.242188 1.316406-6.355469 4.082032-8.070313 2.761718-1.710937 6.253906-1.734375 9.042968-.058593 18.980469 11.265624 30.945313 31.398437 31.761719 53.457031zm0 0"/><path d="m369.859375 356.328125c-2.777344.519531-5.640625.953125-8.503906 1.386719s-5.726563.867187-8.679688 1.214844c-2.84375-12-9.515625-22.75-19.003906-30.632813-2.902344-1.554687-4.671875-4.621094-4.570313-7.914063.101563-3.289062 2.054688-6.242187 5.046876-7.617187 2.992187-1.375 6.503906-.9375 9.070312 1.125 13.414062 10.386719 22.800781 25.113281 26.554688 41.65625.070312.253906.101562.515625.085937.78125zm0 0"/><path d="m410.644531 347.910156c-2.773437.695313-5.550781 1.386719-8.414062 1.996094h-.089844c-2.863281.695312-5.726563 1.386719-8.761719 1.910156-8.820312-15.765625-20.46875-29.769531-34.367187-41.308594-3.738281-3.019531-4.320313-8.496093-1.300781-12.234374 3.019531-3.738282 8.496093-4.324219 12.234374-1.304688 16.519532 13.589844 30.152344 30.351562 40.09375 49.292969.242188.535156.441407 1.085937.605469 1.648437zm0 0"/></g><path d="m130.175781 173.570312c-3.5.007813-6.664062-2.082031-8.023437-5.304687-1.359375-3.226563-.648438-6.949219 1.800781-9.449219 4.390625-5.695312 6.597656-12.777344 6.222656-19.957031.378907-7.1875-1.832031-14.269531-6.230469-19.960937-7.660156-8.898438-11.640624-20.378907-11.125-32.109376-.507812-11.761718 3.507813-23.273437 11.21875-32.167968 2.179688-2.257813 5.40625-3.160156 8.441407-2.367188 3.03125.792969 5.402343 3.164063 6.195312 6.199219.792969 3.03125-.109375 6.257813-2.367187 8.4375-4.339844 5.695313-6.515625 12.75-6.132813 19.898437-.382812 7.183594 1.828125 14.269532 6.230469 19.960938 7.660156 8.894531 11.636719 20.378906 11.125 32.109375.503906 11.761719-3.507812 23.269531-11.222656 32.167969-1.625 1.628906-3.832032 2.542968-6.132813 2.542968zm0 0" fill="#cb8252"/><path d="m182.242188 121.5c-3.5.011719-6.660157-2.082031-8.019532-5.304688-1.359375-3.222656-.652344-6.949218 1.796875-9.445312 4.390625-5.699219 6.597657-12.777344 6.222657-19.960938.382812-7.183593-1.832032-14.265624-6.230469-19.957031-7.660157-8.898437-11.640625-20.382812-11.125-32.109375-.507813-11.761718 3.507812-23.273437 11.21875-32.167968 3.40625-3.289063 8.820312-3.242188 12.167969.105468 3.347656 3.347656 3.394531 8.757813.105468 12.164063-4.34375 5.695312-6.515625 12.746093-6.136718 19.898437-.378907 7.183594 1.832031 14.265625 6.230468 19.957032 7.660156 8.898437 11.640625 20.382812 11.125 32.109374.507813 11.761719-3.507812 23.273438-11.21875 32.171876-1.628906 1.625-3.835937 2.539062-6.136718 2.539062zm0 0" fill="#cb8252"/><path d="m234.308594 173.570312c-3.496094.007813-6.660156-2.082031-8.019532-5.304687-1.359374-3.226563-.648437-6.949219 1.800782-9.449219 4.390625-5.695312 6.597656-12.777344 6.21875-19.957031.382812-7.1875-1.828125-14.269531-6.230469-19.960937-7.660156-8.898438-11.636719-20.378907-11.125-32.109376-.503906-11.761718 3.511719-23.273437 11.222656-32.167968 2.179688-2.257813 5.40625-3.160156 8.4375-2.367188 3.035157.792969 5.40625 3.164063 6.199219 6.199219.792969 3.03125-.109375 6.257813-2.367188 8.4375-4.339843 5.695313-6.515624 12.75-6.136718 19.898437-.378906 7.183594 1.832031 14.269532 6.230468 19.960938 7.664063 8.894531 11.640626 20.378906 11.128907 32.109375.503906 11.761719-3.511719 23.269531-11.222657 32.167969-1.625 1.628906-3.832031 2.542968-6.136718 2.542968zm0 0" fill="#cb8252"/><path d="m199.597656 442.585938c-63.609375 0-91.75-27.40625-92.914062-28.574219-3.300782-3.398438-3.269532-8.8125.070312-12.167969 3.335938-3.359375 8.75-3.417969 12.164063-.140625.566406.539063 25.167969 23.527344 80.707031 23.527344 4.792969 0 8.675781 3.886719 8.675781 8.679687 0 4.789063-3.882812 8.675782-8.675781 8.675782zm0 0" fill="#ecf0f1"/><path d="m398.585938 11.898438-78.539063 199.332031-17.355469 44.085937-1.820312 4.6875-2.171875 5.378906-12.929688 32.890626c-1.316406 3.300781-4.511719 5.46875-8.070312 5.464843-1.097657.007813-2.191407-.195312-3.210938-.605469-2.140625-.851562-3.855469-2.519531-4.769531-4.632812-.910156-2.117188-.941406-4.507812-.089844-6.648438l14.839844-37.75 17.441406-44.257812 80.53125-204.367188c1.773438-4.457031 6.824219-6.632812 11.28125-4.859374 4.457032 1.773437 6.632813 6.824218 4.863282 11.28125zm0 0" fill="#e57e25"/><path d="m500.984375 66.65625-138.585937 149.695312-48.078126 51.980469-.867187.867188c-1.558594 1.695312-3.730469 2.691406-6.027344 2.773437-2.296875.082032-4.535156-.761718-6.207031-2.339844-1.269531-1.113281-2.148438-2.601562-2.519531-4.25-.523438-2.050781-.242188-4.222656.78125-6.074218.324219-.707032.761719-1.351563 1.304687-1.910156l1.90625-2.082032 38.792969-41.828125 146.828125-158.632812c3.332031-3.117188 8.507812-3.125 11.847656-.015625 3.335938 3.109375 3.695313 8.273437.824219 11.816406zm0 0" fill="#d25627"/></svg>